<?xml version="1.0" encoding="UTF-8" standalone="no"?>
<svg
   xmlns:dc="http://purl.org/dc/elements/1.1/"
   xmlns:cc="http://creativecommons.org/ns#"
   xmlns:rdf="http://www.w3.org/1999/02/22-rdf-syntax-ns#"
   xmlns:svg="http://www.w3.org/2000/svg"
   xmlns="http://www.w3.org/2000/svg"
   xmlns:sodipodi="http://sodipodi.sourceforge.net/DTD/sodipodi-0.dtd"
   xmlns:inkscape="http://www.inkscape.org/namespaces/inkscape"
   role="img"
   viewBox="0 0 24 24"
   version="1.1"
   id="svg837"
   sodipodi:docname="linkedin.svg"
   inkscape:version="1.0.1 (c497b03c, 2020-09-10)">
  <metadata
     id="metadata843">
    <rdf:RDF>
      <cc:Work
         rdf:about="">
        <dc:format>image/svg+xml</dc:format>
        <dc:type
           rdf:resource="http://purl.org/dc/dcmitype/StillImage" />
      </cc:Work>
    </rdf:RDF>
  </metadata>
  <defs
     id="defs841" />
  <sodipodi:namedview
     pagecolor="#ffffff"
     bordercolor="#666666"
     borderopacity="1"
     objecttolerance="10"
     gridtolerance="10"
     guidetolerance="10"
     inkscape:pageopacity="0"
     inkscape:pageshadow="2"
     inkscape:window-width="2560"
     inkscape:window-height="1395"
     id="namedview839"
     showgrid="false"
     inkscape:zoom="27.833333"
     inkscape:cx="12"
     inkscape:cy="12"
     inkscape:window-x="0"
     inkscape:window-y="23"
     inkscape:window-maximized="0"
     inkscape:current-layer="svg837" />
  <title
     id="title833">LinkedIn icon</title>
  <path
     d="M20.447 20.452h-3.554v-5.569c0-1.328-.027-3.037-1.852-3.037-1.853 0-2.136 1.445-2.136 2.939v5.667H9.351V9h3.414v1.561h.046c.477-.9 1.637-1.85 3.37-1.85 3.601 0 4.267 2.37 4.267 5.455v6.286zM5.337 7.433c-1.144 0-2.063-.926-2.063-2.065 0-1.138.92-2.063 2.063-2.063 1.14 0 2.064.925 2.064 2.063 0 1.139-.925 2.065-2.064 2.065zm1.782 13.019H3.555V9h3.564v11.452zM22.225 0H1.771C.792 0 0 .774 0 1.729v20.542C0 23.227.792 24 1.771 24h20.451C23.2 24 24 23.227 24 22.271V1.729C24 .774 23.2 0 22.222 0h.003z"
     id="path835" />
  <path
     style="fill:#0077b5;stroke-width:0.0359281;fill-opacity:1"
     d="M 20.446719,20.452078 H 16.892969 V 14.883078 c 0,-1.328398 -0.02696,-3.037138 -1.851875,-3.037138 -1.852968,0 -2.136468,1.444684 -2.136468,2.93914 v 5.666996 H 9.3507031 V 8.9998783 h 3.4140629 v 1.5606857 h 0.04598 c 0.477315,-0.8997979 1.637457,-1.850115 3.370226,-1.850115 3.601188,0 4.267404,2.370026 4.267404,5.454796 v 6.286735 z M 5.3368359,7.4330078 c -1.1440234,0 -2.0632812,-0.926532 -2.0632812,-2.065346 0,-1.1381981 0.9192578,-2.0638298 2.0632812,-2.0638298 1.140234,0 2.0640625,0.9256317 2.0640625,2.0638298 0,1.1388141 -0.9238285,2.065346 -2.0640625,2.065346 z M 7.119336,20.452078 H 3.5550781 V 8.9998783 h 3.5642579 v 11.4521997 z M 22.224609,0.03590698 H 1.7714844 C 0.79226562,0.03590698 0,0.77424752 0,1.7289785 V 22.271002 c 0,0.955648 0.79226562,1.693076 1.7714844,1.693076 H 22.224609 c 0.977657,0 1.769531,-0.737428 1.769531,-1.693076 V 1.7289785 C 23.99414,0.77424752 23.202266,0.03590698 22.224609,0.03590698 Z"
     id="path845" />
</svg>