<?xml version="1.0" encoding="UTF-8" standalone="no"?>
<svg
   xmlns:dc="http://purl.org/dc/elements/1.1/"
   xmlns:cc="http://creativecommons.org/ns#"
   xmlns:rdf="http://www.w3.org/1999/02/22-rdf-syntax-ns#"
   xmlns:svg="http://www.w3.org/2000/svg"
   xmlns="http://www.w3.org/2000/svg"
   xmlns:sodipodi="http://sodipodi.sourceforge.net/DTD/sodipodi-0.dtd"
   xmlns:inkscape="http://www.inkscape.org/namespaces/inkscape"
   role="img"
   viewBox="0 0 24 24"
   version="1.1"
   id="svg837"
   sodipodi:docname="twitter.svg"
   inkscape:version="1.0.1 (c497b03c, 2020-09-10)">
  <metadata
     id="metadata843">
    <rdf:RDF>
      <cc:Work
         rdf:about="">
        <dc:format>image/svg+xml</dc:format>
        <dc:type
           rdf:resource="http://purl.org/dc/dcmitype/StillImage" />
      </cc:Work>
    </rdf:RDF>
  </metadata>
  <defs
     id="defs841" />
  <sodipodi:namedview
     pagecolor="#ffffff"
     bordercolor="#666666"
     borderopacity="1"
     objecttolerance="10"
     gridtolerance="10"
     guidetolerance="10"
     inkscape:pageopacity="0"
     inkscape:pageshadow="2"
     inkscape:window-width="2560"
     inkscape:window-height="1395"
     id="namedview839"
     showgrid="false"
     inkscape:zoom="27.833333"
     inkscape:cx="12"
     inkscape:cy="12"
     inkscape:window-x="0"
     inkscape:window-y="23"
     inkscape:window-maximized="0"
     inkscape:current-layer="svg837" />
  <title
     id="title833">Twitter icon</title>
  <path
     d="M23.953 4.57a10 10 0 01-2.825.775 4.958 4.958 0 002.163-2.723c-.951.555-2.005.959-3.127 1.184a4.92 4.92 0 00-8.384 4.482C7.69 8.095 4.067 6.13 1.64 3.162a4.822 4.822 0 00-.666 2.475c0 1.71.87 3.213 2.188 4.096a4.904 4.904 0 01-2.228-.616v.06a4.923 4.923 0 003.946 4.827 4.996 4.996 0 01-2.212.085 4.936 4.936 0 004.604 3.417 9.867 9.867 0 01-6.102 2.105c-.39 0-.779-.023-1.17-.067a13.995 13.995 0 007.557 2.209c9.053 0 13.998-7.496 13.998-13.985 0-.21 0-.42-.015-.63A9.935 9.935 0 0024 4.59z"
     id="path835" />
  <path
     style="fill:#1da1f2;stroke-width:0.0359281;fill-opacity:1"
     d="M 6.1257485,21.662193 C 4.4098904,21.470142 2.828645,21.010156 1.3473054,20.272137 0.87052563,20.0346 0.09208941,19.598998 0.11507202,19.582596 c 0.005872,-0.0042 0.19660463,0.007 0.42385014,0.02491 0.45428331,0.03577 1.22072674,0.01594 1.77844314,-0.046 1.6553425,-0.183855 3.3905694,-0.86403 4.6965395,-1.840951 L 7.3113772,17.49803 6.988024,17.470852 C 5.5744994,17.352044 4.2797939,16.637316 3.4281638,15.505671 3.2066144,15.211277 2.7896585,14.438739 2.7461484,14.24203 l -0.020637,-0.0933 0.6268204,0.01724 c 0.6051153,0.01665 1.0070129,-0.01458 1.3835337,-0.107486 0.1837379,-0.04533 0.164088,-0.07134 -0.101135,-0.133871 C 4.3200503,13.850427 3.7432901,13.614491 3.4311377,13.432259 2.1505049,12.684634 1.2722464,11.433377 1.0280956,10.008639 0.97259253,9.6847516 0.94890449,9.1796407 0.98921835,9.1796407 c 0.0105371,0 0.0954172,0.038586 0.18862275,0.085748 0.2629834,0.1330682 0.7504223,0.2953836 1.1235961,0.3741536 0.3948464,0.083345 0.860583,0.1322116 0.8594647,0.090178 C 3.1604757,9.7137036 3.0696661,9.6359281 2.9591026,9.5568862 2.6805549,9.3577523 2.2076258,8.8871583 1.9864112,8.5889982 1.5896964,8.0542929 1.3166911,7.4822109 1.1409822,6.8174041 1.0346444,6.4150674 1.0292679,6.3614123 1.026674,5.6766467 1.0237033,4.8923994 1.0602097,4.6330406 1.2531229,4.0678452 1.3560268,3.7663583 1.6137314,3.2144066 1.6503755,3.2170098 c 0.011156,7.925e-4 0.084954,0.085355 0.1639958,0.1879175 0.079042,0.1025621 0.4185628,0.4621012 0.754491,0.7989757 2.1825718,2.1887205 4.9295773,3.5640451 7.9580837,3.9843196 0.418843,0.058124 1.229583,0.1293025 1.251465,0.1098719 0.0066,-0.00583 -0.01364,-0.1715317 -0.04491,-0.3682186 -0.192632,-1.211649 0.110277,-2.5367451 0.812339,-3.5536241 0.750431,-1.0869378 1.976477,-1.8494357 3.310069,-2.058585 0.3671,-0.057573 1.127061,-0.047532 1.526064,0.020164 0.93187,0.1581022 1.84009,0.6061707 2.493066,1.2299497 l 0.276236,0.2638848 0.442327,-0.107603 c 0.811016,-0.1972928 1.64717,-0.5118077 2.322974,-0.8737745 0.389519,-0.2086299 0.383978,-0.2220102 0.13137,0.3172643 -0.383762,0.8192656 -1.056911,1.6041582 -1.751475,2.0422195 -0.193197,0.1218494 -0.216244,0.1675538 -0.07192,0.1426213 0.05434,-0.00939 0.252207,-0.042485 0.439703,-0.073549 0.522251,-0.086527 1.244526,-0.2820601 1.769958,-0.479159 0.261136,-0.097957 0.481589,-0.1713082 0.489895,-0.1630025 0.0083,0.00831 -0.127769,0.2052763 -0.302389,0.4377127 -0.376478,0.5011314 -1.372914,1.5090801 -1.802978,1.8238092 l -0.294565,0.2155689 -0.002,0.7365269 c -0.0046,1.7145762 -0.335447,3.3968779 -0.995936,5.0647759 -0.71693,1.810422 -1.737176,3.393945 -3.065168,4.75744 -1.076895,1.105685 -2.21183,1.938827 -3.556886,2.61107 -1.402358,0.70088 -2.887214,1.142826 -4.5269466,1.347379 -0.6785572,0.08465 -2.6086052,0.103186 -3.251497,0.03123 z"
     id="path845" />
</svg>
